<svg version="1.1" xmlns="http://www.w3.org/2000/svg" xmlns:xlink="http://www.w3.org/1999/xlink" width="132.63063" height="170.67868" viewBox="0,0,132.63063,170.67868"><defs><linearGradient x1="249.00075" y1="199.73688" x2="261.2548" y2="223.78074" gradientUnits="userSpaceOnUse" id="color-1"><stop offset="0" stop-color="#27a8ea"/><stop offset="1" stop-color="#076ebb"/></linearGradient></defs><g transform="translate(-173.27993,-95.10037)"><g data-paper-data="{&quot;isPaintingLayer&quot;:true}" fill-rule="nonzero" stroke-linejoin="miter" stroke-miterlimit="10" stroke-dasharray="" stroke-dashoffset="0" style="mix-blend-mode: normal"><path d="M174.27994,264.77905v-168.67868h95.31532l-0.18469,33l35.5,-0.25441v135.93309z" fill="#ffffff" stroke="#b1b1b1" stroke-width="2" stroke-linecap="butt"/><g fill="none" stroke="#676767" stroke-width="1" stroke-linecap="butt"><path d="M247.89159,151.39551v-3.63445h3.63444v3.63445z"/><path d="M247.89159,155.04853v-3.63444h3.63444v3.63444z"/><path d="M247.89159,158.7977v-3.63444h3.63444v3.63444z"/><path d="M247.89159,162.64299v-3.63444h3.63444v3.63444z"/><path d="M247.89159,166.39216v-3.63444h3.63444v3.63444z"/><path d="M247.89159,170.23745v-3.63444h3.63444v3.63444z"/><path d="M247.89159,173.98661v-3.63444h3.63444v3.63444z"/><path d="M247.89159,177.73578v-3.63444h3.63444v3.63444z"/><path d="M247.89159,181.48494v-3.63444h3.63444v3.63444z"/><path d="M247.89159,185.33023v-3.63444h3.63444v3.63444z"/><path d="M247.89159,189.17553v-3.63444h3.63444v3.63444z"/><path d="M247.89159,192.82856v-3.63444h3.63444v3.63444z"/><path d="M247.89159,196.67385v-3.63444h3.63444v3.63444z"/><path d="M247.89159,200.61528v-3.63444h3.63444v3.63444z"/><path d="M247.89159,203.69152v-2.86539h3.63444v2.86539z"/><path d="M247.89159,207.24841v-3.34605h3.63444v3.34605z"/></g><path d="M202.40626,206.87502v-58.60542h44.29479v58.60542z" fill="#53bcf2" stroke="#000000" stroke-width="2" stroke-linecap="butt"/><path d="M269.36861,199.98911c3.38387,6.63953 -1.02564,16.27441 -9.84892,21.5201c-8.82327,5.24569 -18.71912,4.11577 -22.10298,-2.52376c-3.38387,-6.63953 1.02563,-16.27441 9.84891,-21.5201c8.82327,-5.24569 18.71912,-4.11577 22.10299,2.52376z" fill="#53bcf2" stroke="none" stroke-width="0" stroke-linecap="butt"/><path d="M270.47015,128.09596v-32.875l35.25,32.875z" fill="#ffffff" stroke="none" stroke-width="0" stroke-linecap="butt"/><path d="M271.10366,202.26064c3.38387,6.63953 -1.02564,16.2744 -9.84891,21.5201c-8.82327,5.2457 -18.71911,4.11577 -22.10298,-2.52376c-3.38387,-6.63953 1.02563,-16.27441 9.84891,-21.5201c8.82328,-5.2457 18.71912,-4.11577 22.10299,2.52376z" fill="url(#color-1)" stroke="none" stroke-width="0" stroke-linecap="butt"/><path d="M262.82892,208.01078v-51.56369h8.85896v51.56369z" fill="#1587cf" stroke="none" stroke-width="0" stroke-linecap="butt"/><path d="M262.82892,156.9014v-19.98945h8.85896c0,0 12.68432,14.62793 14.30588,20.57362c0.74495,2.73149 1.81164,15.20738 -1.16856,26.08789c-1.8514,6.75932 -7.42146,12.15634 -9.04856,16.48699c0.75112,-17.5467 3.45932,-26.83249 1.40563,-32.64484c-1.95441,-5.53137 -5.49438,-13.24003 -5.49438,-13.24003v2.72583z" fill="#53bcf2" stroke="none" stroke-width="0" stroke-linecap="butt"/><path d="M284.82518,183.57345c-1.8514,6.75932 -7.42146,12.15634 -9.04856,16.48699c0.75112,-17.5467 3.45932,-26.83249 1.40563,-32.64484c-1.09596,-3.10177 -2.69049,-6.88819 -3.87982,-9.61606c0.43673,-0.35495 0.84294,-0.74602 1.21406,-1.16864c0.64669,-0.06701 1.10872,-0.11253 1.26265,-0.10798c3.02341,0.08932 6.6238,0.77102 10.23858,1.05354c0.7433,2.90705 1.75581,15.23275 -1.19254,25.997z" fill="#1587cf" stroke="none" stroke-width="0" stroke-linecap="butt"/><path d="M208.49051,174.21692c0,-1.41758 1.14918,-2.56676 2.56676,-2.56676c1.41758,0 2.56676,1.14918 2.56676,2.56676c0,1.41758 -1.14918,2.56676 -2.56676,2.56676c-1.41758,0 -2.56676,-1.14918 -2.56676,-2.56676z" fill="#c5112e" stroke="#000000" stroke-width="0.5" stroke-linecap="butt"/><path d="M203.54201,176.89085h42.93188" fill="none" stroke="#000000" stroke-width="2" stroke-linecap="round"/><g fill="none" stroke="#676767" stroke-width="1" stroke-linecap="butt"><path d="M197.23182,151.39551v-3.63445h3.63444v3.63445z"/><path d="M197.23182,155.04853v-3.63444h3.63444v3.63444z"/><path d="M197.23182,158.7977v-3.63444h3.63444v3.63444z"/><path d="M197.23182,162.64299v-3.63444h3.63444v3.63444z"/><path d="M197.23182,166.39216v-3.63444h3.63444v3.63444z"/><path d="M197.23182,170.23745v-3.63444h3.63444v3.63444z"/><path d="M197.23182,173.98661v-3.63444h3.63444v3.63444z"/><path d="M197.23182,177.73578v-3.63444h3.63444v3.63444z"/><path d="M197.23182,181.48494v-3.63444h3.63444v3.63444z"/><path d="M197.23182,185.33023v-3.63444h3.63444v3.63444z"/><path d="M197.23182,189.17553v-3.63444h3.63444v3.63444z"/><path d="M197.23182,192.82856v-3.63444h3.63444v3.63444z"/><path d="M197.23182,196.67385v-3.63444h3.63444v3.63444z"/><path d="M197.23182,200.61528v-3.63444h3.63444v3.63444z"/><path d="M197.23182,203.69152v-2.86539h3.63444v2.86539z"/><path d="M197.23182,207.24841v-3.34605h3.63444v3.34605z"/></g><path d="M237.74568,164.06498c-1.0349,5.02726 -11.23588,1.951 -14.65681,1.41202c-1.42012,-0.22375 -4.3435,0.08706 -5.31111,-0.96074c-0.51104,-0.55338 -2.22801,-3.39071 -2.05971,-4.14806c-0.00057,-0.02188 -0.00085,-0.04382 -0.00085,-0.06584c0,-1.19834 0.84314,-2.19976 1.96855,-2.4434c5.81067,-3.73887 21.81752,-2.33188 20.05993,6.20601z" fill="#ffffff" stroke="none" stroke-width="0.5" stroke-linecap="butt"/><path d="M227.53859,187.38768c4.32145,0.02336 11.66161,4.58225 10.34886,9.83326c-1.36995,5.47982 -11.88291,3.79436 -14.97618,2.68962c-3.05387,-1.09067 -1.91846,-3.29652 -5.17772,-3.76267c-1.83448,-0.26237 -7.82171,0.40636 -9.00702,-0.83049c-2.61936,-2.73324 -0.11204,-4.82259 2.87701,-4.82259c-0.04849,-0.19437 -0.07423,-0.39775 -0.07423,-0.60713c0,-0.91579 0.49241,-1.71658 1.22692,-2.15203c0.23979,-0.19007 0.56189,-0.30457 1.05319,-0.33843c0.07246,-0.00631 0.1458,-0.00954 0.21989,-0.00954c4.50219,-0.09031 9.00625,-0.02434 13.50927,0z" fill="#ffffff" stroke="none" stroke-width="0.5" stroke-linecap="butt"/></g></g></svg>