<svg version="1.1" xmlns="http://www.w3.org/2000/svg" xmlns:xlink="http://www.w3.org/1999/xlink" width="132.63063" height="170.67868" viewBox="0,0,132.63063,170.67868"><g transform="translate(-173.27984,-95.10037)"><g data-paper-data="{&quot;isPaintingLayer&quot;:true}" fill-rule="nonzero" stroke-linejoin="miter" stroke-miterlimit="10" stroke-dasharray="" stroke-dashoffset="0" style="mix-blend-mode: normal"><g fill="#ffffff" stroke-linecap="butt"><path d="M174.27985,264.77905v-168.67868h95.31532l-0.18469,33l35.5,-0.25441v135.93309z" stroke="#b1b1b1" stroke-width="2"/><path d="M270.47015,128.09596v-32.875l35.25,32.875z" stroke="none" stroke-width="0"/></g><path d="M185.67759,115.60921h71.1811" fill="none" stroke="#b1b1b1" stroke-width="0.5" stroke-linecap="round"/><path d="M187.34264,129.76218h99.90329" fill="none" stroke="#b1b1b1" stroke-width="0.5" stroke-linecap="round"/><path d="M189.0077,143.49888h104.89846" fill="none" stroke="#b1b1b1" stroke-width="0.5" stroke-linecap="round"/><path d="M187.34264,155.9868h105.31472" fill="none" stroke="#b1b1b1" stroke-width="0.5" stroke-linecap="round"/><path d="M187.75891,166.80965h111.14241" fill="none" stroke="#b1b1b1" stroke-width="0.5" stroke-linecap="round"/><path d="M186.51011,185.12526h116.55385" fill="none" stroke="#b1b1b1" stroke-width="0.5" stroke-linecap="round"/><path d="M187.75891,204.68965h93.24307" fill="none" stroke="#b1b1b1" stroke-width="0.5" stroke-linecap="round"/><path d="M185.67759,231.33053h115.72132" fill="none" stroke="#b1b1b1" stroke-width="0.5" stroke-linecap="round"/><path d="M191.50528,213.43119h99.07076" fill="none" stroke="#b1b1b1" stroke-width="0.5" stroke-linecap="round"/><path d="M192.75407,221.75646h91.99429" fill="none" stroke="#b1b1b1" stroke-width="0.5" stroke-linecap="round"/><path d="M190.25649,195.53185h91.57802" fill="none" stroke="#b1b1b1" stroke-width="0.5" stroke-linecap="round"/><path d="M191.92154,173.46987h87.41538" fill="none" stroke="#b1b1b1" stroke-width="0.5" stroke-linecap="round"/><path d="M188.59143,239.6558h100.73582" fill="none" stroke="#b1b1b1" stroke-width="0.5" stroke-linecap="round"/><path d="M188.17517,245.4835h101.56835" fill="none" stroke="#b1b1b1" stroke-width="0.5" stroke-linecap="round"/><path d="M187.75891,252.14372h94.90813" fill="none" stroke="#b1b1b1" stroke-width="0.5" stroke-linecap="round"/></g></g></svg>