<svg version="1.1" xmlns="http://www.w3.org/2000/svg" xmlns:xlink="http://www.w3.org/1999/xlink" width="97.66666" height="97.66666" viewBox="0,0,97.66666,97.66666"><defs><linearGradient x1="136.74722" y1="131.16667" x2="136.74722" y2="228.83333" gradientUnits="userSpaceOnUse" id="color-1"><stop offset="0" stop-color="#3500ff"/><stop offset="1" stop-color="#00b3ff"/></linearGradient><radialGradient cx="125.43872" cy="157.72888" r="17.33334" gradientUnits="userSpaceOnUse" id="color-2"><stop offset="0" stop-color="#ffa300"/><stop offset="1" stop-color="#ff0000"/></radialGradient><radialGradient cx="153.10223" cy="171.37042" r="17.83334" gradientUnits="userSpaceOnUse" id="color-3"><stop offset="0" stop-color="#02de00"/><stop offset="1" stop-color="#03a900"/></radialGradient><radialGradient cx="119.11041" cy="187.05572" r="17.33334" gradientUnits="userSpaceOnUse" id="color-4"><stop offset="0" stop-color="#00d7ff"/><stop offset="1" stop-color="#0068ff"/></radialGradient></defs><g transform="translate(-87.91389,-131.16667)"><g data-paper-data="{&quot;isPaintingLayer&quot;:true}" fill-rule="nonzero" stroke="none" stroke-width="0" stroke-linecap="butt" stroke-linejoin="miter" stroke-miterlimit="10" stroke-dasharray="" stroke-dashoffset="0" style="mix-blend-mode: normal"><path d="M87.91389,180c0,-26.96991 21.86343,-48.83333 48.83333,-48.83333c26.96991,0 48.83333,21.86343 48.83333,48.83333c0,26.96991 -21.86343,48.83333 -48.83333,48.83333c-26.96991,0 -48.83333,-21.86343 -48.83333,-48.83333z" fill="url(#color-1)"/><path d="M131.7137,208.60284l6.20978,-27.30272c0,0 6.98742,9.4517 11.30099,10.43279c4.74596,1.07943 16.00173,-4.223 16.00173,-4.223l-6.20978,27.30272c0,0 -10.15114,5.55367 -14.7016,4.51871c-4.55046,-1.03496 -12.60112,-10.72849 -12.60112,-10.72849z" fill="#000000"/><path d="M138.36704,179.34993l6.20978,-27.30272c0,0 6.98742,9.4517 11.30099,10.43279c4.74596,1.07943 16.00173,-4.223 16.00173,-4.223l-6.20978,27.30272c0,0 -10.97555,5.36617 -15.6767,4.29693c-4.37652,-0.9954 -11.62602,-10.50671 -11.62602,-10.50671z" fill="#000000"/><path d="M102.78582,202.02343l6.20978,-27.30272c0,0 11.22949,-4.28287 15.77995,-3.24791c4.55046,1.03496 11.52277,9.45769 11.52277,9.45769l-6.20978,27.30272c0,0 -7.29735,-8.49665 -11.84781,-9.53162c-4.55046,-1.03496 -15.45491,3.32183 -15.45491,3.32183z" fill="#000000"/><path d="M109.11413,172.69659l6.20978,-27.30272c0,0 10.16624,-4.5247 14.47981,-3.54361c4.74596,1.07943 12.82291,9.7534 12.82291,9.7534l-6.20978,27.30272c0,0 -11.35498,-9.41953 -11.84781,-9.53162c-4.495,-1.02235 -15.45491,3.32183 -15.45491,3.32183z" fill="#000000"/><path d="M107.94321,171.52567l6.20978,-27.30272c0,0 10.16624,-4.5247 14.47981,-3.54361c4.74596,1.07943 12.82291,9.7534 12.82291,9.7534l-6.20978,27.30272c0,0 -11.35498,-9.41953 -11.84781,-9.53162c-4.495,-1.02235 -15.45491,3.32183 -15.45491,3.32183z" fill="url(#color-2)"/><path d="M137.19612,178.17901l6.20978,-27.30272c0,0 6.98742,9.4517 11.30099,10.43279c4.74596,1.07943 16.00173,-4.223 16.00173,-4.223l-6.20978,27.30272c0,0 -10.97555,5.36617 -15.6767,4.29693c-4.37652,-0.9954 -11.62602,-10.50671 -11.62602,-10.50671z" fill="url(#color-3)"/><path d="M101.6149,200.85251l6.20978,-27.30272c0,0 11.22949,-4.28287 15.77995,-3.24791c4.55046,1.03496 11.52277,9.45769 11.52277,9.45769l-6.20978,27.30272c0,0 -7.29735,-8.49665 -11.84781,-9.53162c-4.55046,-1.03496 -15.45491,3.32183 -15.45491,3.32183z" fill="url(#color-4)"/><path d="M130.54278,207.43192l6.20978,-27.30272c0,0 6.98742,9.4517 11.30099,10.43279c4.74596,1.07943 16.00173,-4.223 16.00173,-4.223l-6.20978,27.30272c0,0 -10.15114,5.55367 -14.7016,4.51871c-4.55046,-1.03496 -12.60112,-10.72849 -12.60112,-10.72849z" fill="#fff700"/></g></g></svg>